<mxfile host="Electron" agent="Mozilla/5.0 (Windows NT 10.0; Win64; x64) AppleWebKit/537.36 (KHTML, like Gecko) draw.io/27.0.9 Chrome/134.0.6998.205 Electron/35.4.0 Safari/537.36" version="27.0.9">
  <diagram name="페이지-1" id="0SiiVelW6eMoVrJdO9gR">
    <mxGraphModel dx="1708" dy="988" grid="0" gridSize="10" guides="1" tooltips="1" connect="1" arrows="1" fold="1" page="0" pageScale="1" pageWidth="827" pageHeight="1169" math="0" shadow="0">
      <root>
        <mxCell id="0" />
        <mxCell id="1" parent="0" />
        <mxCell id="2t1bl-yr1IrZzwgftiMV-5" style="edgeStyle=orthogonalEdgeStyle;rounded=0;orthogonalLoop=1;jettySize=auto;html=1;entryX=0.5;entryY=0;entryDx=0;entryDy=0;" edge="1" parent="1" source="2t1bl-yr1IrZzwgftiMV-1" target="2t1bl-yr1IrZzwgftiMV-4">
          <mxGeometry relative="1" as="geometry" />
        </mxCell>
        <mxCell id="2t1bl-yr1IrZzwgftiMV-6" value="접속 및 뉴스 요청" style="edgeLabel;html=1;align=center;verticalAlign=middle;resizable=0;points=[];" vertex="1" connectable="0" parent="2t1bl-yr1IrZzwgftiMV-5">
          <mxGeometry x="0.0434" relative="1" as="geometry">
            <mxPoint as="offset" />
          </mxGeometry>
        </mxCell>
        <mxCell id="2t1bl-yr1IrZzwgftiMV-1" value="User" style="shape=umlActor;verticalLabelPosition=bottom;verticalAlign=top;html=1;outlineConnect=0;" vertex="1" parent="1">
          <mxGeometry x="399" y="230" width="30" height="60" as="geometry" />
        </mxCell>
        <mxCell id="2t1bl-yr1IrZzwgftiMV-8" style="edgeStyle=orthogonalEdgeStyle;rounded=0;orthogonalLoop=1;jettySize=auto;html=1;exitX=0.5;exitY=1;exitDx=0;exitDy=0;entryX=0.5;entryY=0;entryDx=0;entryDy=0;startArrow=classic;startFill=1;" edge="1" parent="1" source="2t1bl-yr1IrZzwgftiMV-4" target="2t1bl-yr1IrZzwgftiMV-7">
          <mxGeometry relative="1" as="geometry" />
        </mxCell>
        <mxCell id="2t1bl-yr1IrZzwgftiMV-9" value="요청" style="edgeLabel;html=1;align=center;verticalAlign=middle;resizable=0;points=[];" vertex="1" connectable="0" parent="2t1bl-yr1IrZzwgftiMV-8">
          <mxGeometry x="0.0071" y="1" relative="1" as="geometry">
            <mxPoint as="offset" />
          </mxGeometry>
        </mxCell>
        <mxCell id="2t1bl-yr1IrZzwgftiMV-4" value="WEB UI" style="rounded=0;whiteSpace=wrap;html=1;fillColor=#dae8fc;strokeColor=#6c8ebf;" vertex="1" parent="1">
          <mxGeometry x="353" y="380" width="120" height="60" as="geometry" />
        </mxCell>
        <mxCell id="2t1bl-yr1IrZzwgftiMV-13" style="edgeStyle=orthogonalEdgeStyle;rounded=0;orthogonalLoop=1;jettySize=auto;html=1;exitX=0.25;exitY=1;exitDx=0;exitDy=0;entryX=0.5;entryY=0;entryDx=0;entryDy=0;" edge="1" parent="1" source="2t1bl-yr1IrZzwgftiMV-7" target="2t1bl-yr1IrZzwgftiMV-10">
          <mxGeometry relative="1" as="geometry" />
        </mxCell>
        <mxCell id="2t1bl-yr1IrZzwgftiMV-18" value="뉴스데이터 수집" style="edgeLabel;html=1;align=center;verticalAlign=middle;resizable=0;points=[];" vertex="1" connectable="0" parent="2t1bl-yr1IrZzwgftiMV-13">
          <mxGeometry x="-0.0161" y="1" relative="1" as="geometry">
            <mxPoint as="offset" />
          </mxGeometry>
        </mxCell>
        <mxCell id="2t1bl-yr1IrZzwgftiMV-14" style="edgeStyle=orthogonalEdgeStyle;rounded=0;orthogonalLoop=1;jettySize=auto;html=1;exitX=0.75;exitY=1;exitDx=0;exitDy=0;" edge="1" parent="1" source="2t1bl-yr1IrZzwgftiMV-7" target="2t1bl-yr1IrZzwgftiMV-12">
          <mxGeometry relative="1" as="geometry" />
        </mxCell>
        <mxCell id="2t1bl-yr1IrZzwgftiMV-19" value="요약 및 재질의 수행" style="edgeLabel;html=1;align=center;verticalAlign=middle;resizable=0;points=[];" vertex="1" connectable="0" parent="2t1bl-yr1IrZzwgftiMV-14">
          <mxGeometry x="0.0556" y="2" relative="1" as="geometry">
            <mxPoint as="offset" />
          </mxGeometry>
        </mxCell>
        <mxCell id="2t1bl-yr1IrZzwgftiMV-7" value="FastAPI 서버" style="rounded=0;whiteSpace=wrap;html=1;fillColor=#f8cecc;strokeColor=#b85450;" vertex="1" parent="1">
          <mxGeometry x="353" y="520" width="120" height="60" as="geometry" />
        </mxCell>
        <mxCell id="2t1bl-yr1IrZzwgftiMV-10" value="NewsAPI, RSS 등" style="rounded=0;whiteSpace=wrap;html=1;fillColor=#d5e8d4;strokeColor=#82b366;" vertex="1" parent="1">
          <mxGeometry x="279" y="660" width="120" height="60" as="geometry" />
        </mxCell>
        <mxCell id="2t1bl-yr1IrZzwgftiMV-16" style="edgeStyle=orthogonalEdgeStyle;rounded=0;orthogonalLoop=1;jettySize=auto;html=1;exitX=0.5;exitY=1;exitDx=0;exitDy=0;entryX=0.5;entryY=0;entryDx=0;entryDy=0;" edge="1" parent="1" source="2t1bl-yr1IrZzwgftiMV-12" target="2t1bl-yr1IrZzwgftiMV-15">
          <mxGeometry relative="1" as="geometry" />
        </mxCell>
        <mxCell id="2t1bl-yr1IrZzwgftiMV-17" value="GPT 호출" style="edgeLabel;html=1;align=center;verticalAlign=middle;resizable=0;points=[];" vertex="1" connectable="0" parent="2t1bl-yr1IrZzwgftiMV-16">
          <mxGeometry x="-0.1583" relative="1" as="geometry">
            <mxPoint as="offset" />
          </mxGeometry>
        </mxCell>
        <mxCell id="2t1bl-yr1IrZzwgftiMV-12" value="Langchain" style="rounded=0;whiteSpace=wrap;html=1;fillColor=#d5e8d4;strokeColor=#82b366;" vertex="1" parent="1">
          <mxGeometry x="429" y="660" width="120" height="60" as="geometry" />
        </mxCell>
        <mxCell id="2t1bl-yr1IrZzwgftiMV-15" value="OpenAPI" style="rounded=0;whiteSpace=wrap;html=1;fillColor=#d5e8d4;strokeColor=#82b366;" vertex="1" parent="1">
          <mxGeometry x="429" y="800" width="120" height="60" as="geometry" />
        </mxCell>
      </root>
    </mxGraphModel>
  </diagram>
</mxfile>
